<mxfile host="65bd71144e">
    <diagram id="iMnhmqQ0vpmMiBlBvUfv" name="Page-1">
        <mxGraphModel dx="905" dy="649" grid="1" gridSize="10" guides="1" tooltips="1" connect="1" arrows="1" fold="1" page="1" pageScale="1" pageWidth="850" pageHeight="1100" math="0" shadow="0">
            <root>
                <mxCell id="0"/>
                <mxCell id="1" parent="0"/>
                <mxCell id="5" value="Администратор" style="swimlane;whiteSpace=wrap" vertex="1" parent="1">
                    <mxGeometry x="20" y="510" width="280" height="570" as="geometry"/>
                </mxCell>
                <mxCell id="6" value="" style="ellipse;shape=startState;fillColor=#000000;strokeColor=#000000;" vertex="1" parent="5">
                    <mxGeometry x="125" y="25" width="30" height="30" as="geometry"/>
                </mxCell>
                <mxCell id="8" value="Открытие вкладки&#xa;&quot;Управление ML-моделями&quot;" style="fontSize=8;" vertex="1" parent="5">
                    <mxGeometry x="85" y="80" width="110" height="50" as="geometry"/>
                </mxCell>
                <mxCell id="9" value="user action" style="" vertex="1" parent="5">
                    <mxGeometry x="70" y="360" width="110" height="50" as="geometry"/>
                </mxCell>
                <mxCell id="11" value="post command" style="" vertex="1" parent="5">
                    <mxGeometry x="60" y="460" width="110" height="50" as="geometry"/>
                </mxCell>
                <mxCell id="rW3KbAbaDsUPxvcsQPAy-48" value="Выбор модели " style="fontSize=8;" vertex="1" parent="5">
                    <mxGeometry x="85" y="160" width="110" height="50" as="geometry"/>
                </mxCell>
                <mxCell id="rW3KbAbaDsUPxvcsQPAy-50" value="" style="html=1;verticalAlign=bottom;labelBackgroundColor=none;endArrow=open;endFill=0;entryX=0.5;entryY=0;entryDx=0;entryDy=0;exitX=0.495;exitY=0.897;exitDx=0;exitDy=0;exitPerimeter=0;" edge="1" parent="5" source="6" target="8">
                    <mxGeometry width="160" relative="1" as="geometry">
                        <mxPoint x="140" y="60" as="sourcePoint"/>
                        <mxPoint x="360" y="115" as="targetPoint"/>
                    </mxGeometry>
                </mxCell>
                <mxCell id="rW3KbAbaDsUPxvcsQPAy-58" value="Выбор данных" style="fontSize=8;" vertex="1" parent="5">
                    <mxGeometry x="85" y="260" width="110" height="50" as="geometry"/>
                </mxCell>
                <mxCell id="rW3KbAbaDsUPxvcsQPAy-59" value="" style="html=1;verticalAlign=bottom;labelBackgroundColor=none;endArrow=open;endFill=0;exitX=0.5;exitY=1;exitDx=0;exitDy=0;entryX=0.5;entryY=0;entryDx=0;entryDy=0;" edge="1" parent="5" source="rW3KbAbaDsUPxvcsQPAy-48" target="rW3KbAbaDsUPxvcsQPAy-58">
                    <mxGeometry width="160" relative="1" as="geometry">
                        <mxPoint x="330" y="270" as="sourcePoint"/>
                        <mxPoint x="180" y="270" as="targetPoint"/>
                        <Array as="points"/>
                    </mxGeometry>
                </mxCell>
                <mxCell id="14" value="ИС" style="swimlane;whiteSpace=wrap" vertex="1" parent="1">
                    <mxGeometry x="300" y="510" width="280" height="570" as="geometry"/>
                </mxCell>
                <mxCell id="17" value="Формирование запроса к ollama" style="fontSize=8;" vertex="1" parent="14">
                    <mxGeometry x="70" y="80" width="140" height="50" as="geometry"/>
                </mxCell>
                <mxCell id="20" value="command queue" style="" vertex="1" parent="14">
                    <mxGeometry x="20" y="325" width="110" height="50" as="geometry"/>
                </mxCell>
                <mxCell id="28" value="dispatch&#xa;command&#xa;worker thread" style="" vertex="1" parent="14">
                    <mxGeometry x="140" y="325" width="110" height="50" as="geometry"/>
                </mxCell>
                <mxCell id="rW3KbAbaDsUPxvcsQPAy-56" value="Отображенние страницы управления" style="fontSize=8;" vertex="1" parent="14">
                    <mxGeometry x="65" y="160" width="150" height="50" as="geometry"/>
                </mxCell>
                <mxCell id="46" value="Ollama" style="swimlane;whiteSpace=wrap;startSize=23;" vertex="1" parent="1">
                    <mxGeometry x="580" y="510" width="280" height="570" as="geometry"/>
                </mxCell>
                <mxCell id="47" value="process&#xa;command" style="" vertex="1" parent="46">
                    <mxGeometry x="120" y="390" width="110" height="50" as="geometry"/>
                </mxCell>
                <mxCell id="48" value="" style="ellipse;shape=endState;fillColor=#000000;strokeColor=#000000;" vertex="1" parent="46">
                    <mxGeometry x="130" y="500" width="30" height="30" as="geometry"/>
                </mxCell>
                <mxCell id="rW3KbAbaDsUPxvcsQPAy-51" value="Получение списка доступных моделей" style="fontSize=8;" vertex="1" parent="46">
                    <mxGeometry x="70" y="80" width="150" height="50" as="geometry"/>
                </mxCell>
                <mxCell id="rW3KbAbaDsUPxvcsQPAy-49" value="" style="html=1;verticalAlign=bottom;labelBackgroundColor=none;endArrow=open;endFill=0;exitX=1;exitY=0.5;exitDx=0;exitDy=0;entryX=0;entryY=0.5;entryDx=0;entryDy=0;" edge="1" parent="1" source="8" target="17">
                    <mxGeometry width="160" relative="1" as="geometry">
                        <mxPoint x="250" y="620" as="sourcePoint"/>
                        <mxPoint x="330" y="615" as="targetPoint"/>
                    </mxGeometry>
                </mxCell>
                <mxCell id="rW3KbAbaDsUPxvcsQPAy-52" value="" style="html=1;verticalAlign=bottom;labelBackgroundColor=none;endArrow=open;endFill=0;exitX=1;exitY=0.5;exitDx=0;exitDy=0;entryX=0;entryY=0.5;entryDx=0;entryDy=0;" edge="1" parent="1" source="17" target="rW3KbAbaDsUPxvcsQPAy-51">
                    <mxGeometry width="160" relative="1" as="geometry">
                        <mxPoint x="610" y="700" as="sourcePoint"/>
                        <mxPoint x="765" y="700" as="targetPoint"/>
                    </mxGeometry>
                </mxCell>
                <mxCell id="rW3KbAbaDsUPxvcsQPAy-55" value="" style="html=1;verticalAlign=bottom;labelBackgroundColor=none;endArrow=open;endFill=0;exitX=0.5;exitY=1;exitDx=0;exitDy=0;entryX=1;entryY=0.5;entryDx=0;entryDy=0;" edge="1" parent="1" source="rW3KbAbaDsUPxvcsQPAy-51" target="rW3KbAbaDsUPxvcsQPAy-56">
                    <mxGeometry width="160" relative="1" as="geometry">
                        <mxPoint x="700" y="690" as="sourcePoint"/>
                        <mxPoint x="510" y="680" as="targetPoint"/>
                        <Array as="points">
                            <mxPoint x="725" y="695"/>
                        </Array>
                    </mxGeometry>
                </mxCell>
                <mxCell id="rW3KbAbaDsUPxvcsQPAy-57" value="" style="html=1;verticalAlign=bottom;labelBackgroundColor=none;endArrow=open;endFill=0;exitX=0;exitY=0.5;exitDx=0;exitDy=0;entryX=1;entryY=0.5;entryDx=0;entryDy=0;" edge="1" parent="1" source="rW3KbAbaDsUPxvcsQPAy-56" target="rW3KbAbaDsUPxvcsQPAy-48">
                    <mxGeometry width="160" relative="1" as="geometry">
                        <mxPoint x="340" y="710" as="sourcePoint"/>
                        <mxPoint x="230" y="695" as="targetPoint"/>
                        <Array as="points"/>
                    </mxGeometry>
                </mxCell>
            </root>
        </mxGraphModel>
    </diagram>
</mxfile>